# Blender v2.79 (sub 0) OBJ File: 'Pinball_Board_MOD_0010.blend'
# www.blender.org
mtllib Jumper.mtl
o Cube.003
v 0.240865 0.046003 -1.365355
v 0.038777 0.046003 -1.383036
v 0.000000 0.046003 -1.383036
v -0.240865 0.046003 -1.365355
v -0.038777 0.046003 -1.383036
v 0.240865 0.235952 -1.365355
v 0.038777 0.235952 -1.383036
v 0.000000 0.235952 -1.383036
v -0.240865 0.235952 -1.365355
v -0.038777 0.235952 -1.383036
v 0.038777 0.240575 -1.383036
v 0.240865 0.240575 -1.365355
v -0.038777 0.240575 -1.383036
v -0.240865 0.240575 -1.365355
v 0.000000 0.240575 -1.383036
v 0.038777 0.041701 -1.383036
v 0.240865 0.041701 -1.365355
v 0.000000 0.041701 -1.383036
v -0.038777 0.041701 -1.383036
v -0.240865 0.041701 -1.365355
v 0.240865 0.051223 -0.820508
v 0.240865 0.046003 -0.817443
v 0.038777 0.051223 -0.838189
v 0.038777 0.046003 -0.835124
v 0.000000 0.051223 -0.838189
v 0.000000 0.046003 -0.835124
v -0.240865 0.051223 -0.820508
v -0.240865 0.046003 -0.817443
v -0.038777 0.051223 -0.838189
v -0.038777 0.046003 -0.835124
v 0.240865 0.041701 -0.817443
v 0.038777 0.041701 -0.835124
v 0.000000 0.041701 -0.835124
v 0.038777 0.055846 -0.845429
v 0.240865 0.055846 -0.827748
v 0.000000 0.055846 -0.845429
v -0.038777 0.041701 -0.835124
v -0.240865 0.041701 -0.817443
v -0.240865 0.055846 -0.827748
v -0.038777 0.055846 -0.845429
v 0.232685 0.046003 -1.366071
v 0.232685 0.235952 -1.366071
v 0.232685 0.041701 -1.366071
v 0.232685 0.240575 -1.366071
v 0.232685 0.046003 -0.818159
v 0.232685 0.051223 -0.821224
v 0.232685 0.041701 -0.818159
v 0.232685 0.055846 -0.828464
v -0.240865 0.046003 -1.362002
v -0.240865 0.234421 -1.362002
v 0.000000 0.041701 -1.379682
v -0.038777 0.041701 -1.379682
v -0.240865 0.239044 -1.362002
v -0.038777 0.239044 -1.379682
v 0.240865 0.046003 -1.362002
v 0.240865 0.041701 -1.362002
v 0.000000 0.239044 -1.379682
v 0.038777 0.041701 -1.379682
v 0.240865 0.239044 -1.362002
v 0.240865 0.234421 -1.362002
v 0.038777 0.239044 -1.379682
v -0.240865 0.041701 -1.362002
v 0.232685 0.239044 -1.362717
v 0.232685 0.041701 -1.362717
v -0.235618 0.046003 -1.365814
v -0.235618 0.235952 -1.365814
v -0.235618 0.041701 -1.365814
v -0.235618 0.240575 -1.365814
v -0.235618 0.046003 -0.817902
v -0.235618 0.051223 -0.820967
v -0.235618 0.041701 -0.817902
v -0.235618 0.055846 -0.828207
v -0.235618 0.041701 -1.362461
v -0.235618 0.239044 -1.362461
vt 0.831057 0.123663
vt 0.830491 0.123662
vt 0.830492 0.136107
vt 0.831059 0.136108
vt 0.831159 0.089330
vt 0.831234 0.076963
vt 0.830667 0.076962
vt 0.830592 0.089329
vt 0.854359 0.106496
vt 0.854373 0.101735
vt 0.831084 0.101696
vt 0.831070 0.106457
vt 0.854449 0.089369
vt 0.854524 0.077003
vt 0.831056 0.111218
vt 0.854345 0.111257
vt 0.854347 0.123702
vt 0.854349 0.136147
vt 0.830517 0.101695
vt 0.830503 0.106456
vt 0.830489 0.111217
vt 0.854874 0.123703
vt 0.854876 0.136148
vt 0.854887 0.106497
vt 0.854873 0.111258
vt 0.854976 0.089370
vt 0.855051 0.077003
vt 0.854901 0.101736
vt 0.831057 0.123663
vt 0.831059 0.136108
vt 0.830492 0.136107
vt 0.830491 0.123662
vt 0.831159 0.089330
vt 0.830592 0.089329
vt 0.830667 0.076962
vt 0.831234 0.076963
vt 0.854359 0.106496
vt 0.831070 0.106457
vt 0.831084 0.101696
vt 0.854373 0.101735
vt 0.854449 0.089369
vt 0.854524 0.077003
vt 0.854345 0.111257
vt 0.831056 0.111218
vt 0.854347 0.123702
vt 0.854349 0.136147
vt 0.830503 0.106456
vt 0.830517 0.101695
vt 0.830489 0.111217
vt 0.854874 0.123703
vt 0.854876 0.136148
vt 0.854887 0.106497
vt 0.854873 0.111258
vt 0.854976 0.089370
vt 0.855051 0.077003
vt 0.854901 0.101736
vt 0.831234 0.076963
vt 0.854524 0.077003
vt 0.854901 0.101736
vt 0.854887 0.106497
vt 0.830592 0.089329
vt 0.830667 0.076962
vt 0.854876 0.136148
vt 0.854349 0.136147
vt 0.830503 0.106456
vt 0.830517 0.101695
vt 0.854874 0.123703
vt 0.831059 0.136108
vt 0.830492 0.136107
vt 0.854873 0.111258
vt 0.830491 0.123662
vt 0.830489 0.111217
vt 0.855051 0.077003
vt 0.854976 0.089370
vn 0.0872 0.0000 -0.9962
vn -0.0872 0.0000 -0.9962
vn 0.0000 0.0000 -1.0000
vn -0.0436 0.0000 -0.9990
vn -0.0871 0.0000 -0.9962
vn 0.0436 0.0000 -0.9990
vn 0.0871 0.0000 -0.9962
vn -0.0629 0.6926 0.7186
vn -0.0634 0.6860 0.7248
vn -0.0384 0.8975 0.4393
vn -0.0380 0.9001 0.4340
vn 0.0629 0.6926 0.7186
vn 0.0380 0.9001 0.4340
vn 0.0384 0.8975 0.4393
vn 0.0634 0.6860 0.7248
vn 0.0000 0.2624 0.9650
vn 0.0000 0.6938 0.7202
vn 0.0313 0.6968 0.7166
vn 0.0424 0.2640 0.9636
vn 0.0841 0.2616 0.9615
vn 0.0842 0.2579 0.9625
vn -0.0424 0.2640 0.9636
vn -0.0313 0.6968 0.7166
vn -0.0841 0.2616 0.9615
vn -0.0842 0.2579 0.9625
vn 0.0000 0.9008 0.4343
vn 0.0188 0.9019 0.4316
vn -0.0188 0.9019 0.4316
vn -0.0872 0.0000 0.9962
vn 0.0000 0.0000 1.0000
vn -0.0436 0.0000 0.9990
vn 0.0872 0.0000 0.9962
vn 0.0436 0.0000 0.9990
vn -1.0000 0.0000 0.0000
vn -0.0000 -1.0000 -0.0000
vn 0.0324 0.9285 0.3700
vn 0.0322 0.9294 0.3677
vn 1.0000 0.0000 0.0000
vn 0.0000 0.9289 0.3702
vn 0.0163 0.9283 0.3714
vn -0.0324 0.9284 0.3700
vn -0.0163 0.9283 0.3714
vn -0.0322 0.9294 0.3677
vn -0.0363 0.9091 0.4150
vn -0.0177 0.9096 0.4152
vn 0.0000 0.9097 0.4152
vn 0.0177 0.9096 0.4152
vn 0.0363 0.9091 0.4150
usemtl Material
s 1
f 42/1/1 44/2/1 12/3/1 6/4/1
f 66/5/2 9/6/2 14/7/2 68/8/2
f 3/9/3 5/10/4 10/11/4 8/12/3
f 65/13/2 4/14/5 9/6/2 66/5/2
f 3/9/3 8/12/3 7/15/6 2/16/6
f 41/17/1 42/1/1 6/4/1 1/18/7
f 8/12/3 10/11/4 13/19/4 15/20/3
f 8/12/3 15/20/3 11/21/6 7/15/6
f 43/22/1 41/17/1 1/18/7 17/23/7
f 18/24/3 3/9/3 2/16/6 16/25/6
f 67/26/2 20/27/5 4/14/5 65/13/2
f 18/24/3 19/28/4 5/10/4 3/9/3
f 46/29/8 21/30/9 35/31/10 48/32/11
f 70/33/12 72/34/13 39/35/14 27/36/15
f 26/37/16 25/38/17 29/39/18 30/40/19
f 69/41/20 70/33/12 27/36/15 28/42/21
f 26/37/16 24/43/22 23/44/23 25/38/17
f 45/45/24 22/46/25 21/30/9 46/29/8
f 25/38/17 36/47/26 40/48/27 29/39/18
f 25/38/17 23/44/23 34/49/28 36/47/26
f 47/50/29 31/51/29 22/46/25 45/45/24
f 33/52/30 32/53/31 24/43/22 26/37/16
f 71/54/32 69/41/20 28/42/21 38/55/32
f 33/52/30 26/37/16 30/40/19 37/56/33
f 50/57/34 49/58/34 28/42/34 27/36/34
f 52/59/35 51/60/35 33/52/35 37/56/35
f 74/61/36 53/62/37 39/35/14 72/34/13
f 56/63/38 55/64/38 22/46/38 31/51/38
f 57/65/39 54/66/40 40/48/27 36/47/26
f 64/67/35 56/63/35 31/51/35 47/50/35
f 60/68/38 59/69/38 35/31/38 21/30/38
f 51/60/35 58/70/35 32/53/35 33/52/35
f 55/64/38 60/68/38 21/30/38 22/46/38
f 63/71/41 61/72/42 34/49/28 48/32/11
f 49/58/34 62/73/34 38/55/34 28/42/34
f 61/72/42 57/65/39 36/47/26 34/49/28
f 53/62/34 50/57/34 27/36/34 39/35/34
f 73/74/35 52/59/35 37/56/35 71/54/35
f 59/69/43 63/71/41 48/32/11 35/31/10
f 58/70/35 64/67/35 47/50/35 32/53/35
f 32/53/31 47/50/29 45/45/24 24/43/22
f 24/43/22 45/45/24 46/29/8 23/44/23
f 23/44/23 46/29/8 48/32/11 34/49/28
f 16/25/6 2/16/6 41/17/1 43/22/1
f 2/16/6 7/15/6 42/1/1 41/17/1
f 7/15/6 11/21/6 44/2/1 42/1/1
f 16/25/35 43/22/35 64/67/35 58/70/35
f 12/3/44 44/2/44 63/71/41 59/69/43
f 67/26/35 19/28/35 52/59/35 73/74/35
f 14/7/34 9/6/34 50/57/34 53/62/34
f 11/21/45 15/20/46 57/65/39 61/72/42
f 4/14/34 20/27/34 62/73/34 49/58/34
f 44/2/44 11/21/45 61/72/42 63/71/41
f 1/18/38 6/4/38 60/68/38 55/64/38
f 18/24/35 16/25/35 58/70/35 51/60/35
f 6/4/38 12/3/38 59/69/38 60/68/38
f 43/22/35 17/23/35 56/63/35 64/67/35
f 15/20/46 13/19/47 54/66/40 57/65/39
f 17/23/38 1/18/38 55/64/38 56/63/38
f 68/8/48 14/7/48 53/62/37 74/61/36
f 19/28/35 18/24/35 51/60/35 52/59/35
f 9/6/34 4/14/34 49/58/34 50/57/34
f 13/19/47 68/8/48 74/61/36 54/66/40
f 20/27/35 67/26/35 73/74/35 62/73/35
f 62/73/35 73/74/35 71/54/35 38/55/35
f 54/66/40 74/61/36 72/34/13 40/48/27
f 37/56/33 30/40/19 69/41/20 71/54/32
f 30/40/19 29/39/18 70/33/12 69/41/20
f 29/39/18 40/48/27 72/34/13 70/33/12
f 19/28/4 67/26/2 65/13/2 5/10/4
f 5/10/4 65/13/2 66/5/2 10/11/4
f 10/11/4 66/5/2 68/8/2 13/19/4
