# Blender v2.79 (sub 0) OBJ File: 'Pinball_Board_MOD_0008.blend'
# www.blender.org
mtllib TableTop.mtl
o Cube.003
v -1.092057 0.040701 -0.258210
v -1.118528 0.040701 -0.618102
v -1.034398 0.040701 -0.798519
v -0.919456 0.040701 -0.962674
v -0.777754 0.040701 -1.104376
v -0.613599 0.040701 -1.219319
v -0.431978 0.040701 -1.304010
v -0.926363 0.040701 -0.074849
v -0.780419 0.040701 0.012475
v -0.717709 0.040701 0.066282
v -0.654159 0.040701 0.220510
v -0.673087 0.040701 0.308146
v -0.727090 0.040701 0.392333
v -0.987033 0.040701 0.522052
v -1.188474 0.040701 0.748044
v -1.049924 0.040701 0.546901
v -1.106072 0.040701 0.586255
v -1.150493 0.040701 0.636362
v -1.178710 0.040701 0.691843
v 0.038162 0.040701 -1.373396
v 0.238410 0.040701 -1.355877
v 0.431978 0.040701 -1.304010
v 0.613599 0.040701 -1.219319
v 0.777754 0.040701 -1.104376
v 0.919456 0.040701 -0.962674
v 1.034398 0.040701 -0.798519
v 1.119089 0.040701 -0.616898
v 1.170956 0.040701 -0.423330
v 1.188475 0.040701 -0.223081
v 1.188473 0.040701 2.073723
v 0.000000 0.040701 -1.373396
v -0.038162 0.040701 -1.373396
v -0.238410 0.040701 -1.355877
v -1.133216 0.040701 -0.426943
v 1.017834 0.040701 2.073723
v 0.974258 0.040701 2.073723
v 0.970844 0.040701 2.073723
v -1.188473 0.040701 2.073723
v -0.133727 0.040701 2.073722
v 0.133727 0.040701 2.073722
v 0.000000 0.040701 1.939994
v 1.014565 0.040701 2.073723
v -0.654159 0.040701 0.211081
v -0.671224 0.040701 0.139146
v -0.901109 0.040701 0.499954
v -0.807348 0.040701 0.459618
vt 0.304337 0.754379
vt 0.302188 0.778978
vt 0.295824 0.802757
vt 0.285434 0.825068
vt 0.271331 0.845234
vt 0.253946 0.862641
vt 0.233806 0.876761
vt 0.211524 0.887165
vt 0.187775 0.893536
vt 0.163207 0.895689
vt 0.158525 0.895689
vt 0.158526 0.488659
vt 0.174933 0.472231
vt 0.277637 0.472231
vt 0.278056 0.472231
vt 0.283001 0.472231
vt 0.283402 0.472231
vt 0.304337 0.472230
vt 0.024543 0.758695
vt 0.044872 0.736170
vt 0.062777 0.725443
vt 0.070471 0.718833
vt 0.076174 0.709882
vt 0.078268 0.701045
vt 0.078268 0.699887
vt 0.075946 0.689122
vt 0.069320 0.678780
vt 0.059473 0.670514
vt 0.047970 0.665559
vt 0.037428 0.662845
vt 0.029712 0.659792
vt 0.022823 0.654958
vt 0.017374 0.648802
vt 0.013912 0.641987
vt 0.012714 0.635083
vt 0.012714 0.472231
vt 0.142119 0.472231
vt 0.153843 0.895689
vt 0.129275 0.893537
vt 0.105526 0.887165
vt 0.083244 0.876761
vt 0.063104 0.862641
vt 0.045719 0.845234
vt 0.031617 0.825069
vt 0.021295 0.802906
vt 0.019493 0.779423
vn 0.0000 1.0000 -0.0000
usemtl Material
s 1
f 29/1/1 28/2/1 27/3/1 26/4/1 25/5/1 24/6/1 23/7/1 22/8/1 21/9/1 20/10/1 31/11/1 41/12/1 40/13/1 37/14/1 36/15/1 42/16/1 35/17/1 30/18/1
f 1/19/1 8/20/1 9/21/1 10/22/1 44/23/1 43/24/1 11/25/1 12/26/1 13/27/1 46/28/1 45/29/1 14/30/1 16/31/1 17/32/1 18/33/1 19/34/1 15/35/1 38/36/1 39/37/1 41/12/1 31/11/1 32/38/1 33/39/1 7/40/1 6/41/1 5/42/1 4/43/1 3/44/1 2/45/1 34/46/1
